<svg width="35" height="35" viewBox="0 0 35 35" fill="none" xmlns="http://www.w3.org/2000/svg">
<path fill-rule="evenodd" clip-rule="evenodd" d="M29.3545 0C32.4722 0 35 2.52777 35 5.64551V29.3545C35 32.4722 32.4722 35 29.3545 35H5.64551C2.52777 35 0 32.4722 0 29.3545V5.64551C0 2.52777 2.52777 0 5.64551 0H29.3545ZM6.53711 25.3398C6.99316 25.7308 7.59042 25.9696 8.24121 25.9697H26.7549C27.4683 25.9696 28.1181 25.6816 28.5889 25.2207C28.6541 25.1567 28.7179 25.0883 28.7764 25.0176L20.9121 18.1602L20.0381 18.9229C19.4084 19.4719 18.6245 19.7471 17.8408 19.7471C17.058 19.7471 16.2733 19.471 15.6445 18.9229L14.7705 18.1602L14.7695 18.1592L6.53711 25.3398ZM5.92188 10.4414C5.74446 10.7857 5.64355 11.1736 5.64355 11.583V23.4199C5.64355 23.7948 5.7279 24.1504 5.87695 24.4727L5.87793 24.4736L13.9443 17.4385L5.92188 10.4414ZM21.7393 17.4385L29.2812 24.0156C29.328 23.8244 29.3535 23.6255 29.3535 23.4209V11.583C29.3535 11.3421 29.3182 11.1075 29.2529 10.8857L21.7393 17.4385ZM8.24219 9.03418C7.62623 9.03418 7.05774 9.24876 6.6123 9.60254L16.375 18.1182C16.7951 18.4843 17.3185 18.668 17.8418 18.668C18.3651 18.668 18.8885 18.4843 19.3086 18.1182L28.7148 9.91504C28.6749 9.87018 28.6326 9.82616 28.5889 9.7832C28.1181 9.32141 27.4692 9.03423 26.7549 9.03418H8.24219Z" fill="#EFE7D8"/>
</svg>
